<svg width="250" height="250" viewBox="0 0 250 250" fill="none" xmlns="http://www.w3.org/2000/svg">
<g clip-path="url(#clip0_55_3)">
<path d="M56.4 237C54.2 236.6 52.7 235.6 51.9 234C51.3 232.8 50.8 231.5 50.4 230.1C50.2 228.9 50 227.7 49.8 226.5C49.6 224.9 49.4 223.2 49.2 221.4C49 219.8 48.8 218.2 48.6 216.6C48.4 214.6 48.1 212.7 47.7 210.9C47.3 209.1 46.7 207.2 45.9 205.2C45.7 204.6 45.5 204.1 45.3 203.7C45.1 203.1 44.8 202.5 44.4 201.9L40.8 194.4C39.8 192.4 39.3 190.4 39.3 188.4C39.1 185.8 39 183.3 39 180.9C39 178.5 39.1 176.1 39.3 173.7C39.3 172.9 39.5 171.9 39.9 170.7C40.3 168.7 40.7 166.8 41.1 165C41.7 163 42.1 161.1 42.3 159.3C42.7 156.9 43.1 154.6 43.5 152.4C43.9 150 44.2 147.7 44.4 145.5C44.8 143.3 45.1 141.1 45.3 138.9C45.5 136.7 45.7 134.5 45.9 132.3C46.1 130.7 46.3 129.2 46.5 127.8C46.7 126.2 46.9 124.7 47.1 123.3C47.3 122.7 47.4 121.8 47.4 120.6C47.4 119.6 47.5 118.6 47.7 117.6C47.9 116.4 48.1 115.3 48.3 114.3C48.7 112.7 48.9 111.1 48.9 109.5C49.1 107.7 49.3 106 49.5 104.4C49.7 103.8 49.8 103 49.8 102C50.4 99.8 50.8 97.5 51 95.1C51.4 92.7 51.7 90.3 51.9 87.9L52.8 82.8C53.2 80.6 53.5 78.4 53.7 76.2C53.9 73.8 54.1 71.5 54.3 69.3C54.7 67.1 54.9 64.9 54.9 62.7C54.9 60.3 54.9 58 54.9 55.8C54.9 54.6 54.9 53.5 54.9 52.5C55.1 51.3 55.3 50.1 55.5 48.9C55.9 43.7 55.5 38.7 54.3 33.9C54.1 33.7 54 33.5 54 33.3C53.2 30.7 53.1 28.3 53.7 26.1C54.3 23.9 55.3 21.8 56.7 19.8C59.1 15.8 62.5 13.4 66.9 12.6C67.7 12.4 68.4 12.3 69 12.3C69.6 12.1 70.3 12.1 71.1 12.3C71.9 12.7 72.6 12.9 73.2 12.9C75 13.1 76.7 13.9 78.3 15.3L81 18.9C82.4 21.3 83.7 23.1 84.9 24.3C88.1 28.3 90.9 32.6 93.3 37.2C94.7 39.8 95.9 42.4 96.9 45C98.1 47.4 99.3 49.8 100.5 52.2C101.1 53.6 101.6 54.9 102 56.1C102.6 57.3 103.2 58.5 103.8 59.7C104.2 60.3 104.8 61 105.6 61.8C106.4 63 106.8 63.9 106.8 64.5C107.2 65.3 107.1 66 106.5 66.6C106.3 66.8 106.3 67.1 106.5 67.5C106.7 67.9 106.9 68.3 107.1 68.7C107.3 68.9 107.7 70.1 108.3 72.3C108.9 74.3 109.1 75 108.9 74.4C109.3 75.4 109.9 75.9 110.7 75.9C111.3 76.1 111.7 76.5 111.9 77.1C112.1 77.5 111.8 78 111 78.6C110.4 78.8 110.4 79.6 111 81C111.6 82.2 112 83 112.2 83.4C113 85.4 113.7 87.4 114.3 89.4C114.9 91.2 115.6 93.1 116.4 95.1C117.4 97.7 118.3 100.4 119.1 103.2C119.9 106 120.7 108.8 121.5 111.6C122.1 113.6 122.7 115.6 123.3 117.6C124.1 119.4 124.8 121.2 125.4 123C125.4 123.4 125.6 123.6 126 123.6L126.6 123C126.6 122.6 126.8 122 127.2 121.2C127.6 119 128.1 116.8 128.7 114.6C129.3 112.2 129.9 109.9 130.5 107.7C131.5 104.7 132.3 101.7 132.9 98.7C133.7 95.7 134.5 92.7 135.3 89.7C135.7 87.9 136.2 86.1 136.8 84.3C137.4 82.3 137.8 80.4 138 78.6C138.8 75.2 139.6 71.9 140.4 68.7C141.2 65.5 141.9 62.3 142.5 59.1C142.7 58.7 142.8 58.3 142.8 57.9C143 57.5 143.1 57.1 143.1 56.7C143.3 54.7 143.9 52.8 144.9 51C146.9 46.8 150.2 44.1 154.8 42.9C157 42.3 159.2 42.3 161.4 42.9C163.2 43.3 164.5 44 165.3 45C166.7 46.4 168 47.8 169.2 49.2C170.6 50.6 171.8 52.1 172.8 53.7C173.6 54.9 174.4 56.1 175.2 57.3C176 58.3 176.8 59.4 177.6 60.6C178.2 61.4 178.8 62.3 179.4 63.3C180 64.1 180.5 65 180.9 66C182.5 68.8 184 71.7 185.4 74.7C186.8 77.7 188 80.8 189 84C189 84.4 189.1 84.7 189.3 84.9C190.3 86.9 191.1 89 191.7 91.2C192.3 93.2 192.9 95.3 193.5 97.5C194.3 99.7 194.9 101.9 195.3 104.1C195.9 106.3 196.5 108.5 197.1 110.7C197.1 111.5 197.2 112.1 197.4 112.5C198 114.1 198.5 115.8 198.9 117.6C199.3 119.4 199.7 121.1 200.1 122.7C200.5 125.1 200.9 127.5 201.3 129.9C201.7 132.3 202.1 134.6 202.5 136.8C202.9 139.8 203.3 142.8 203.7 145.8C204.1 148.8 204.6 151.8 205.2 154.8C205.6 156.8 205.9 158.9 206.1 161.1C206.5 163.3 206.8 165.5 207 167.7C207 168.3 207.2 169.2 207.6 170.4L208.5 177.6C208.5 178.6 208.6 179.3 208.8 179.7C209.8 183.5 210.4 187.4 210.6 191.4C210.8 191.6 210.9 191.9 210.9 192.3C210.9 192.5 211 192.8 211.2 193.2L213.3 205.2C213.7 206.6 213.7 208.1 213.3 209.7L212.7 212.1C212.7 213.7 212.4 215.2 211.8 216.6C211.2 218 210.5 219.4 209.7 220.8C209.1 221.6 208.4 222.4 207.6 223.2C206.8 224.2 205.9 225 204.9 225.6C202.7 227.2 200.5 227.3 198.3 225.9C193.7 222.9 190.3 219.2 188.1 214.8C187.9 214 187.6 213.3 187.2 212.7C187 211.9 186.9 211.1 186.9 210.3L186 204.6C185.8 203.6 185.6 202.6 185.4 201.6C185.4 200.4 185.3 199.3 185.1 198.3L182.1 180.9C181.9 179.5 181.7 178.2 181.5 177C181.3 175.8 181.1 174.5 180.9 173.1L179.7 166.5C179.3 164.3 178.9 162.1 178.5 159.9C178.1 157.5 177.7 155.2 177.3 153L174.3 133.8C174.1 131 173.6 128.3 172.8 125.7C172.2 122.9 171.6 120.2 171 117.6C170.2 114.4 169.3 111.4 168.3 108.6C167.3 105.6 166.2 102.7 165 99.9L164.1 97.2C163.9 96.6 163.6 96 163.2 95.4C162.8 94.8 162.4 94.3 162 93.9C161.4 93.9 161.1 94 161.1 94.2L160.2 97.2C159.4 99.8 158.7 102.6 158.1 105.6C157.5 108.4 156.8 111.2 156 114C155.6 115.6 155.2 117.2 154.8 118.8C154.4 120.4 154 122 153.6 123.6C153.2 125 152.8 126.5 152.4 128.1C152.2 129.5 151.9 131 151.5 132.6C151.1 135 150.6 137.4 150 139.8C149.4 142.2 148.9 144.6 148.5 147C148.3 148.8 148 150.6 147.6 152.4C147.4 154.2 147.2 156 147 157.8V159.6C147.4 161.2 147 162.6 145.8 163.8C145.6 164.4 145.3 165 144.9 165.6C144.7 166 144.5 166.5 144.3 167.1C143.9 168.9 143.4 170.2 142.8 171L141.9 173.1C141.7 173.3 141.5 173.7 141.3 174.3C141.3 174.7 141.1 175.1 140.7 175.5C139.3 177.9 137.5 179.5 135.3 180.3C134.5 180.7 133.7 181.1 132.9 181.5C132.3 181.9 131.6 182.3 130.8 182.7C128.8 183.7 126.7 183.6 124.5 182.4C121.5 180.4 119.2 178.2 117.6 175.8L112.2 168C112.2 167.8 112.1 167.7 111.9 167.7C111.9 167.5 111.9 167.4 111.9 167.4C111.1 165.2 110.2 163.2 109.2 161.4C108.2 159.6 107.4 157.7 106.8 155.7L103.2 145.2C102.2 142.6 101.3 140 100.5 137.4C99.7 134.8 98.8 132.2 97.8 129.6L96.9 127.2C96.5 125.4 96 123.6 95.4 121.8C95 120 94.5 118.3 93.9 116.7C93.5 114.9 93 113.2 92.4 111.6C91.8 109.8 91.3 108.1 90.9 106.5C90.1 104.3 89.3 102.1 88.5 99.9C87.9 97.5 87.1 95.2 86.1 93C85.7 91.6 85.1 90.5 84.3 89.7C82.7 88.1 81.6 86.2 81 84C81 83.6 80.8 83.4 80.4 83.4L79.8 84V84.3C79.6 84.5 79.5 84.8 79.5 85.2C79.3 87.2 79.1 89.3 78.9 91.5C78.7 93.7 78.4 95.9 78 98.1L77.1 108C76.9 109.6 76.7 111.2 76.5 112.8C76.5 114.4 76.4 116 76.2 117.6C76 118.4 75.8 119.2 75.6 120C75.6 120.8 75.6 121.7 75.6 122.7C75.4 127.7 74.8 133 73.8 138.6C73.6 140 73.4 141.6 73.2 143.4C73 145 72.8 146.6 72.6 148.2L71.7 154.8C71.1 158.4 70.8 161.9 70.8 165.3C70.8 166.7 70.8 168.1 70.8 169.5C71 170.9 70.9 172.3 70.5 173.7C70.3 175.5 70.5 177.6 71.1 180C71.9 181.4 72.2 182.8 72 184.2C72 185.6 71.8 187.1 71.4 188.7C71.2 189.9 70.8 191.1 70.2 192.3C69.8 193.5 69.1 194.6 68.1 195.6C67.7 196.2 67.2 196.9 66.6 197.7C66.2 198.5 65.7 199.2 65.1 199.8C63.5 201.8 62.7 204 62.7 206.4V213C62.7 214.6 62.6 216.1 62.4 217.5C62.4 219.1 62.5 220.7 62.7 222.3C62.7 222.5 62.6 222.7 62.4 222.9C62.4 223.1 62.4 223.4 62.4 223.8C62.2 224.4 62.1 225 62.1 225.6C62.1 226.2 62.1 226.8 62.1 227.4C62.3 229.2 62.1 231.1 61.5 233.1C60.5 234.9 59.2 236.1 57.6 236.7C57.2 236.9 56.8 237 56.4 237Z" fill="url(#paint0_linear_55_3)"/>
</g>
<defs>
<linearGradient id="paint0_linear_55_3" x1="125" y1="79" x2="125" y2="273" gradientUnits="userSpaceOnUse">
<stop stop-color="#E53170"/>
<stop offset="1" stop-color="#FF8906"/>
</linearGradient>
<clipPath id="clip0_55_3">
<rect width="250" height="250" rx="50" fill="white"/>
</clipPath>
</defs>
</svg>
