<svg width="1280" height="160" viewBox="0 0 1280 160" fill="none" xmlns="http://www.w3.org/2000/svg">
<g clip-path="url(#clip0_1_45)">
<path d="M1280 144L1253.33 128C1226.67 112 1173.33 80 1120 72C1066.67 64 1013.33 80 960 93.3333C906.667 106.667 853.333 117.333 800 104C746.667 90.6667 693.333 53.3333 640 34.6667C586.667 16 533.333 16 480 16C426.667 16 373.333 16 320 34.6667C266.667 53.3333 213.333 90.6667 160 90.6667C106.667 90.6667 53.3334 53.3333 0 34.6667C-53.3334 16 -106.667 16 -160 34.6667C-213.333 53.3333 -266.667 90.6667 -320 93.3333C-373.333 96 -426.667 64 -480 53.3333C-533.333 42.6667 -586.667 53.3333 -640 74.6667C-693.333 96 -746.667 128 -800 136C-853.333 144 -906.667 128 -960 112C-1013.33 96 -1066.67 80 -1120 80C-1173.33 80 -1226.67 96 -1280 109.333C-1333.33 122.667 -1386.67 133.333 -1440 128C-1493.33 122.667 -1546.67 101.333 -1600 88C-1653.33 74.6667 -1706.67 69.3333 -1760 58.6667C-1813.33 48 -1866.67 32 -1920 29.3333C-1973.33 26.6667 -2026.67 37.3333 -2080 40C-2133.33 42.6667 -2186.67 37.3333 -2240 34.6667C-2293.33 32 -2346.67 32 -2400 32C-2453.33 32 -2506.67 32 -2533.33 32H-2560V0L-2533.33 0C-2506.67 0 -2453.33 0 -2400 0C-2346.67 0 -2293.33 0 -2240 0C-2186.67 0 -2133.33 0 -2080 0C-2026.67 0 -1973.33 0 -1920 0C-1866.67 0 -1813.33 0 -1760 0C-1706.67 0 -1653.33 0 -1600 0C-1546.67 0 -1493.33 0 -1440 0C-1386.67 0 -1333.33 0 -1280 0C-1226.67 0 -1173.33 0 -1120 0C-1066.67 0 -1013.33 0 -960 0C-906.667 0 -853.333 0 -800 0C-746.667 0 -693.333 0 -640 0C-586.667 0 -533.333 0 -480 0C-426.667 0 -373.333 0 -320 0C-266.667 0 -213.333 0 -160 0C-106.667 0 -53.3334 0 0 0C53.3334 0 106.667 0 160 0C213.333 0 266.667 0 320 0C373.333 0 426.667 0 480 0C533.333 0 586.667 0 640 0C693.333 0 746.667 0 800 0C853.333 0 906.667 0 960 0C1013.33 0 1066.67 0 1120 0C1173.33 0 1226.67 0 1253.33 0H1280V144Z" fill="url(#paint0_linear_1_45)"/>
<path opacity="0.9" d="M1280 144L1253.33 122.667C1226.67 101.333 1173.33 58.6667 1120 40C1066.67 21.3333 1013.33 26.6667 960 26.6667C906.667 26.6667 853.333 21.3333 800 29.3333C746.667 37.3333 693.333 58.6667 640 80C586.667 101.333 533.333 122.667 480 120C426.667 117.333 373.333 90.6667 320 69.3333C266.667 48 213.333 32 160 48C106.667 64 53.3334 112 0 120C-53.3334 128 -106.667 96 -160 88C-213.333 80 -266.667 96 -320 106.667C-373.333 117.333 -426.667 122.667 -480 114.667C-533.333 106.667 -586.667 85.3333 -640 82.6667C-693.333 80 -746.667 96 -800 109.333C-853.333 122.667 -906.667 133.333 -960 117.333C-1013.33 101.333 -1066.67 58.6667 -1120 45.3333C-1173.33 32 -1226.67 48 -1280 53.3333C-1333.33 58.6667 -1386.67 53.3333 -1440 64C-1493.33 74.6667 -1546.67 101.333 -1600 120C-1653.33 138.667 -1706.67 149.333 -1760 133.333C-1813.33 117.333 -1866.67 74.6667 -1920 64C-1973.33 53.3333 -2026.67 74.6667 -2080 80C-2133.33 85.3333 -2186.67 74.6667 -2240 61.3333C-2293.33 48 -2346.67 32 -2400 34.6667C-2453.33 37.3333 -2506.67 58.6667 -2533.33 69.3333L-2560 80V0L-2533.33 0C-2506.67 0 -2453.33 0 -2400 0C-2346.67 0 -2293.33 0 -2240 0C-2186.67 0 -2133.33 0 -2080 0C-2026.67 0 -1973.33 0 -1920 0C-1866.67 0 -1813.33 0 -1760 0C-1706.67 0 -1653.33 0 -1600 0C-1546.67 0 -1493.33 0 -1440 0C-1386.67 0 -1333.33 0 -1280 0C-1226.67 0 -1173.33 0 -1120 0C-1066.67 0 -1013.33 0 -960 0C-906.667 0 -853.333 0 -800 0C-746.667 0 -693.333 0 -640 0C-586.667 0 -533.333 0 -480 0C-426.667 0 -373.333 0 -320 0C-266.667 0 -213.333 0 -160 0C-106.667 0 -53.3334 0 0 0C53.3334 0 106.667 0 160 0C213.333 0 266.667 0 320 0C373.333 0 426.667 0 480 0C533.333 0 586.667 0 640 0C693.333 0 746.667 0 800 0C853.333 0 906.667 0 960 0C1013.33 0 1066.67 0 1120 0C1173.33 0 1226.67 0 1253.33 0H1280V144Z" fill="url(#paint1_linear_1_45)"/>
</g>
<defs>
<linearGradient id="paint0_linear_1_45" x1="1280" y1="0" x2="1280" y2="144" gradientUnits="userSpaceOnUse">
<stop stop-color="#E53170" stop-opacity="0.91"/>
<stop offset="1" stop-color="#FF8906" stop-opacity="0.91"/>
</linearGradient>
<linearGradient id="paint1_linear_1_45" x1="1280" y1="0" x2="1280" y2="144" gradientUnits="userSpaceOnUse">
<stop stop-color="#E53170" stop-opacity="0.92"/>
<stop offset="1" stop-color="#FF8906" stop-opacity="0.94"/>
</linearGradient>
<clipPath id="clip0_1_45">
<rect width="1280" height="160" fill="white" transform="matrix(-1 0 0 -1 1280 160)"/>
</clipPath>
</defs>
</svg>
