<svg width="22" height="21" viewBox="0 0 22 21" fill="none" xmlns="http://www.w3.org/2000/svg">
<path d="M11.0001 0C4.92568 0 0 4.81379 0 10.7521C0 15.5026 3.15184 19.533 7.52254 20.9547C8.07228 21.0543 8.27415 20.7215 8.27415 20.4375C8.27415 20.1811 8.26384 19.3341 8.2592 18.4357C5.19896 19.0861 4.55323 17.1671 4.55323 17.1671C4.05281 15.9243 3.3318 15.5938 3.3318 15.5938C2.3338 14.9265 3.40708 14.9402 3.40708 14.9402C4.51163 15.016 5.09326 16.0482 5.09326 16.0482C6.07441 17.6919 7.66666 17.2167 8.29434 16.942C8.39309 16.2471 8.67814 15.7727 8.99276 15.5042C6.54947 15.2324 3.98105 14.3104 3.98105 10.1905C3.98105 9.01664 4.41074 8.05745 5.1144 7.30447C5.00019 7.03366 4.6237 5.94014 5.22096 4.45906C5.22096 4.45906 6.1447 4.1701 8.24682 5.56122C9.12424 5.323 10.0653 5.20355 11.0001 5.19943C11.9349 5.20355 12.8767 5.32291 13.7558 5.56122C15.8553 4.17018 16.7778 4.45914 16.7778 4.45914C17.3765 5.94006 16.9998 7.03374 16.8856 7.30447C17.5909 8.05745 18.0177 9.01664 18.0177 10.1905C18.0177 14.3202 15.4443 15.2295 12.9949 15.4957C13.3894 15.8294 13.741 16.4837 13.741 17.4869C13.741 18.9255 13.7283 20.0833 13.7283 20.4375C13.7283 20.7236 13.9263 21.0589 14.4838 20.9532C18.8521 19.53 22 15.5011 22 10.7522C22 4.81379 17.075 0 11.0001 0ZM4.11993 15.3166C4.0957 15.37 4.00967 15.386 3.93138 15.3493C3.85155 15.3143 3.80677 15.2415 3.83255 15.1879C3.85627 15.1329 3.94247 15.1175 4.02205 15.1544C4.10197 15.1895 4.14752 15.263 4.11993 15.3166ZM4.66099 15.7885C4.60857 15.836 4.50596 15.8139 4.43635 15.7388C4.36442 15.6639 4.35093 15.5636 4.40413 15.5154C4.45827 15.4678 4.5577 15.4901 4.6298 15.565C4.70181 15.6409 4.71573 15.7404 4.66099 15.7885ZM5.03224 16.3923C4.96478 16.438 4.85461 16.3951 4.78646 16.2995C4.71909 16.2039 4.71909 16.0893 4.78792 16.0433C4.85624 15.9974 4.96478 16.0387 5.03379 16.1336C5.10099 16.2308 5.10099 16.3455 5.03216 16.3923L5.03224 16.3923ZM5.65993 17.0916C5.59969 17.1566 5.47121 17.1391 5.3772 17.0504C5.28103 16.9637 5.2543 16.8407 5.31481 16.7757C5.37582 16.7105 5.50498 16.7289 5.59969 16.8169C5.69508 16.9034 5.7243 17.0273 5.65993 17.0916ZM6.47135 17.3276C6.44471 17.4119 6.32096 17.4502 6.19644 17.4144C6.072 17.3775 5.99062 17.2789 6.01571 17.1938C6.04158 17.109 6.16584 17.0691 6.29131 17.1074C6.41558 17.1441 6.49722 17.2419 6.47135 17.3276ZM7.39466 17.4278C7.39776 17.5164 7.29214 17.5899 7.16134 17.5916C7.02986 17.5945 6.92338 17.5227 6.92192 17.4354C6.92192 17.3459 7.02522 17.2731 7.15679 17.2709C7.28759 17.2684 7.39466 17.3396 7.39466 17.4278ZM8.30173 17.3938C8.31738 17.4803 8.22654 17.5692 8.0966 17.5929C7.96898 17.6156 7.85073 17.5622 7.83449 17.4765C7.81868 17.3877 7.91123 17.2989 8.03868 17.2759C8.16879 17.2539 8.28515 17.3058 8.30173 17.3938Z" fill="#A7A9BE"/>
</svg>
