<svg width="30" height="24" viewBox="0 0 32 25" fill="none" xmlns="http://www.w3.org/2000/svg">
<path d="M3.125 25C2.26562 25 1.52995 24.694 0.917969 24.082C0.30599 23.4701 0 22.7344 0 21.875V3.125C0 2.26562 0.30599 1.52995 0.917969 0.917969C1.52995 0.30599 2.26562 0 3.125 0H28.125C28.9844 0 29.7201 0.30599 30.332 0.917969C30.944 1.52995 31.25 2.26562 31.25 3.125V21.875C31.25 22.7344 30.944 23.4701 30.332 24.082C29.7201 24.694 28.9844 25 28.125 25H3.125ZM15.625 14.0625L3.125 6.25V21.875H28.125V6.25L15.625 14.0625ZM15.625 10.9375L28.125 3.125H3.125L15.625 10.9375ZM3.125 6.25V3.125V21.875V6.25Z" fill="#A7A9BE"/>
</svg>
