<svg width="30" height="27" viewBox="0 0 30 27" fill="none" xmlns="http://www.w3.org/2000/svg">
<path d="M14.5352 26.67L20.6026 10.668H23.4029L29.4704 26.67H26.67L25.2365 22.6028H18.769L17.3355 26.67H14.5352ZM4.0005 22.6695L2.1336 20.8026L8.86777 14.0684C8.0899 13.2906 7.38426 12.4016 6.75084 11.4014C6.11743 10.4013 5.53403 9.26783 5.00063 8.001H7.80097C8.24547 8.86777 8.68997 9.62343 9.13447 10.268C9.57897 10.9125 10.1124 11.557 10.7347 12.2015C11.4681 11.4681 12.2293 10.4402 13.0183 9.11781C13.8073 7.79542 14.4018 6.53415 14.8019 5.334H0V2.667H9.3345V0H12.0015V2.667H21.336V5.334H17.4689C17.0021 6.9342 16.302 8.57885 15.3686 10.268C14.4351 11.9571 13.5128 13.2461 12.6016 14.1351L15.802 17.4022L14.8019 20.1359L10.7347 15.9687L4.0005 22.6695ZM19.6024 20.2692H24.4031L22.0028 13.4684L19.6024 20.2692Z" fill="white"/>
</svg>
